<svg xmlns="http://www.w3.org/2000/svg" width="600" height="400" viewBox="0 0 600 400">
  <!-- Background -->
  <rect width="600" height="400" fill="#f8f9fa" />
  
  <!-- Company Building Representation -->
  <rect x="150" y="100" width="300" height="200" fill="#e4e8f0" />
  <rect x="170" y="130" width="60" height="80" fill="#4e73df" opacity="0.8" />
  <rect x="250" y="130" width="60" height="80" fill="#4e73df" opacity="0.8" />
  <rect x="330" y="130" width="60" height="80" fill="#4e73df" opacity="0.8" />
  
  <!-- Door -->
  <rect x="250" y="230" width="60" height="70" fill="#3a5ecc" />
  
  <!-- Roof -->
  <polygon points="150,100 300,50 450,100" fill="#d1d8e6" />
  
  <!-- People Silhouettes -->
  <circle cx="200" cy="320" r="20" fill="#2c3e50" />
  <rect x="190" y="340" width="20" height="40" fill="#2c3e50" />
  
  <circle cx="250" cy="320" r="20" fill="#2c3e50" />
  <rect x="240" y="340" width="20" height="40" fill="#2c3e50" />
  
  <circle cx="300" cy="320" r="20" fill="#2c3e50" />
  <rect x="290" y="340" width="20" height="40" fill="#2c3e50" />
  
  <!-- Decorative Elements -->
  <circle cx="100" cy="100" r="30" fill="#4e73df" opacity="0.5" />
  <circle cx="500" cy="300" r="40" fill="#4e73df" opacity="0.5" />
  
  <!-- Sun -->
  <circle cx="500" cy="80" r="40" fill="#f6c23e" opacity="0.8" />
  <line x1="500" y1="20" x2="500" y2="40" stroke="#f6c23e" stroke-width="4" />
  <line x1="500" y1="120" x2="500" y2="140" stroke="#f6c23e" stroke-width="4" />
  <line x1="440" y1="80" x2="460" y2="80" stroke="#f6c23e" stroke-width="4" />
  <line x1="540" y1="80" x2="560" y2="80" stroke="#f6c23e" stroke-width="4" />
  <line x1="460" y1="40" x2="475" y2="55" stroke="#f6c23e" stroke-width="4" />
  <line x1="525" y1="105" x2="540" y2="120" stroke="#f6c23e" stroke-width="4" />
  <line x1="460" y1="120" x2="475" y2="105" stroke="#f6c23e" stroke-width="4" />
  <line x1="525" y1="55" x2="540" y2="40" stroke="#f6c23e" stroke-width="4" />
</svg>