<svg xmlns="http://www.w3.org/2000/svg" width="600" height="400" viewBox="0 0 600 400">
  <!-- Background -->
  <rect width="600" height="400" fill="#f5f7fa" />
  
  <!-- Abstract Business Graphic -->
  <circle cx="300" cy="200" r="150" fill="#e4e8f0" />
  <circle cx="300" cy="200" r="120" fill="#d1d8e6" />
  <circle cx="300" cy="200" r="90" fill="#4e73df" opacity="0.8" />
  
  <!-- Business Icons -->
  <!-- Chart -->
  <rect x="220" y="180" width="20" height="80" fill="#3a5ecc" />
  <rect x="250" y="150" width="20" height="110" fill="#3a5ecc" />
  <rect x="280" y="200" width="20" height="60" fill="#3a5ecc" />
  <rect x="310" y="170" width="20" height="90" fill="#3a5ecc" />
  <rect x="340" y="130" width="20" height="130" fill="#3a5ecc" />
  
  <!-- Decorative Elements -->
  <circle cx="150" cy="100" r="30" fill="#4e73df" opacity="0.5" />
  <circle cx="450" cy="300" r="40" fill="#4e73df" opacity="0.5" />
  <circle cx="500" cy="120" r="25" fill="#4e73df" opacity="0.5" />
  <circle cx="100" cy="320" r="35" fill="#4e73df" opacity="0.5" />
  
  <!-- Abstract Lines -->
  <line x1="50" y1="50" x2="150" y2="150" stroke="#4e73df" stroke-width="3" opacity="0.3" />
  <line x1="550" y1="50" x2="450" y2="150" stroke="#4e73df" stroke-width="3" opacity="0.3" />
  <line x1="50" y1="350" x2="150" y2="250" stroke="#4e73df" stroke-width="3" opacity="0.3" />
  <line x1="550" y1="350" x2="450" y2="250" stroke="#4e73df" stroke-width="3" opacity="0.3" />
</svg>